<?xml version="1.0" encoding="utf-8"?>
<!-- Generator: Adobe Illustrator 16.0.0, SVG Export Plug-In . SVG Version: 6.00 Build 0)  -->
<!DOCTYPE svg PUBLIC "-//W3C//DTD SVG 1.1//EN" "http://www.w3.org/Graphics/SVG/1.1/DTD/svg11.dtd">
<svg version="1.1" id="Layer_1" xmlns="http://www.w3.org/2000/svg" xmlns:xlink="http://www.w3.org/1999/xlink" x="0px" y="0px"
	 width="100px" height="100px" viewBox="0 0 100 100" enable-background="new 0 0 100 100" xml:space="preserve">
<path fill="none" stroke="#6BC9F2" stroke-width="4" stroke-miterlimit="10" d="M14.471,94.237V17.292"/>
<path fill="none" stroke="#E64C3C" stroke-width="4" stroke-miterlimit="10" d="M14.471,17.292l74.13,34.434"/>
<path fill="none" stroke="#E64C3C" stroke-width="4" stroke-miterlimit="10" d="M40.225,36.792"/>
<path fill="none" stroke="#F29C1F" stroke-width="4" stroke-miterlimit="10" d="M14.971,94.765l73.63-43.038"/>
<g>
	<path fill="#FFFFFF" d="M88.602,55.227c-1.93,0-3.5-1.57-3.5-3.5s1.57-3.5,3.5-3.5s3.5,1.57,3.5,3.5S90.531,55.227,88.602,55.227z"
		/>
	<path fill="#2980BA" d="M88.602,49.727c1.104,0,2,0.896,2,2s-0.896,2-2,2s-2-0.896-2-2S87.498,49.727,88.602,49.727 M88.602,46.727
		c-2.762,0-5,2.24-5,5c0,2.762,2.238,5,5,5s5-2.238,5-5C93.602,48.967,91.363,46.727,88.602,46.727z"/>
</g>
<g>
	<path fill="#FFFFFF" d="M14.471,20.792c-1.931,0-3.5-1.57-3.5-3.5s1.569-3.5,3.5-3.5c1.93,0,3.5,1.57,3.5,3.5
		S16.401,20.792,14.471,20.792z"/>
	<path fill="#2980BA" d="M14.471,15.292c1.103,0,2,0.896,2,2s-0.897,2-2,2s-2-0.896-2-2S13.369,15.292,14.471,15.292 M14.471,12.292
		c-2.761,0-5,2.239-5,5s2.239,5,5,5c2.762,0,5-2.239,5-5S17.233,12.292,14.471,12.292z"/>
</g>
<g>
	<path fill="#FFFFFF" d="M14.471,98.265c-1.93,0-3.5-1.57-3.5-3.5s1.57-3.5,3.5-3.5c1.93,0,3.5,1.57,3.5,3.5
		S16.401,98.265,14.471,98.265z"/>
	<path fill="#2980BA" d="M14.471,92.765c1.104,0,2,0.896,2,2s-0.896,2-2,2c-1.103,0-2-0.896-2-2S13.368,92.765,14.471,92.765
		 M14.471,89.765c-2.761,0-5,2.239-5,5s2.239,5,5,5c2.762,0,5-2.239,5-5S17.233,89.765,14.471,89.765z"/>
</g>
<path opacity="0.05" enable-background="new    " d="M74.499,37.768c-4.425,4.269-11.174,4.895-16.298,1.908l-2.872,2.771
	c6.847,9.024,6.073,21.752-2.376,29.908c-9.333,9.01-24.467,9.01-33.8,0c-9.335-9.009-9.334-23.617,0-32.624
	c8.575-8.279,22.045-8.944,31.417-2.01l2.885-2.783c-2.831-4.896-2.106-11.192,2.204-15.353c5.204-5.021,13.636-5.021,18.841,0
	C79.7,24.604,79.7,32.747,74.499,37.768z M72.068,21.936c-3.866-3.735-10.13-3.735-13.994,0c-3.866,3.733-3.866,9.787,0,13.521
	c3.864,3.733,10.128,3.733,13.994,0C75.935,31.723,75.935,25.669,72.068,21.936z"/>
<path fill="#E74C3C" d="M75.865,35.827c-4.424,4.268-11.176,4.895-16.299,1.905l-2.87,2.772c6.844,9.026,6.071,21.75-2.377,29.908
	c-9.334,9.006-24.468,9.006-33.802,0c-9.333-9.01-9.333-23.617,0-32.626c8.576-8.279,22.046-8.943,31.419-2.009l2.883-2.782
	c-2.832-4.896-2.106-11.193,2.208-15.353c5.199-5.021,13.635-5.021,18.838,0C81.064,22.663,81.064,30.805,75.865,35.827z
	 M73.433,19.994c-3.861-3.734-10.129-3.734-13.994,0c-3.862,3.734-3.862,9.788,0,13.521c3.865,3.734,10.133,3.734,13.994,0
	C77.299,29.782,77.299,23.729,73.433,19.994z"/>
<ellipse fill="#FFFFFF" cx="37.425" cy="54.048" rx="18.438" ry="17.797"/>
<ellipse fill="#ECF0F1" cx="37.767" cy="42.678" rx="1.707" ry="1.647"/>
<path fill="#ECF0F1" d="M37.767,64.1c0.943,0,1.707,0.738,1.707,1.647c0,0.907-0.763,1.648-1.707,1.648
	c-0.943,0-1.708-0.741-1.708-1.648C36.06,64.838,36.824,64.1,37.767,64.1z"/>
<ellipse fill="#ECF0F1" cx="24.62" cy="55.884" rx="2.197" ry="2.13"/>
<ellipse fill="#ECF0F1" cx="50.059" cy="53.884" rx="1.708" ry="1.648"/>
<path opacity="0.15" enable-background="new    " d="M37.425,36.25c-5.439,0-10.327,2.274-13.703,5.891
	c3.268-2.841,7.593-4.571,12.337-4.571c10.184,0,18.439,7.967,18.439,17.796c0,4.578-1.795,8.753-4.737,11.907
	c3.747-3.258,6.101-7.975,6.101-13.228C55.863,44.218,47.609,36.25,37.425,36.25z"/>
<path fill="#34495E" d="M47.766,43.194l-8.079,13.288l-13.658,7.691L47.766,43.194z"/>
<path fill="#306DAB" d="M26.029,64.174l8.08-13.292l13.657-7.689L26.029,64.174z"/>
<path fill="#C0392B" d="M57.098,30.03l5.479,5.287c1.334,1.289,0.957,2.803-0.243,3.961c-1.2,1.16-2.771,1.521-4.103,0.233
	l-5.479-5.287c-1.335-1.287-0.958-2.803,0.245-3.961C54.194,29.104,55.763,28.742,57.098,30.03z"/>
</svg>
